<svg xmlns="http://www.w3.org/2000/svg" width="749" height="796" viewBox="0 0 749 796">
  <rect x="20" y="20" width="709" height="756" rx="96" fill="#ffffff" stroke="#d0d7de" stroke-width="20" />
  <path d="M 308.0 777.0 L 306.0 780.0 L 307.0 784.0 L 309.0 786.0 L 315.0 786.0 L 317.0 781.0 L 316.0 779.0 L 311.0 776.0 Z M 460.0 771.0 L 454.0 775.0 L 455.0 779.0 L 458.0 781.0 L 465.0 778.0 L 465.0 774.0 Z M 265.0 753.0 L 263.0 758.0 L 270.0 761.0 L 272.0 756.0 Z M 207.0 729.0 L 208.0 737.0 L 211.0 740.0 L 219.0 742.0 L 222.0 739.0 L 221.0 734.0 L 211.0 728.0 Z M 187.0 727.0 L 187.0 732.0 L 190.0 735.0 L 196.0 735.0 L 196.0 730.0 L 192.0 726.0 Z M 634.0 690.0 L 627.0 696.0 L 625.0 701.0 L 635.0 695.0 Z M 129.0 664.0 L 140.0 678.0 L 149.0 681.0 Z M 112.0 651.0 L 111.0 652.0 L 113.0 655.0 L 111.0 657.0 L 114.0 657.0 L 120.0 664.0 L 119.0 665.0 L 120.0 664.0 L 123.0 666.0 L 124.0 665.0 L 121.0 660.0 Z M 677.0 649.0 L 673.0 650.0 L 668.0 655.0 L 670.0 659.0 L 662.0 669.0 L 663.0 670.0 L 667.0 664.0 L 670.0 662.0 L 673.0 663.0 L 679.0 656.0 L 679.0 651.0 Z M 205.0 624.0 L 218.0 633.0 L 227.0 636.0 L 233.0 642.0 L 232.0 644.0 L 234.0 641.0 L 236.0 645.0 L 240.0 646.0 L 237.0 645.0 L 237.0 641.0 L 233.0 639.0 L 234.0 637.0 L 239.0 636.0 L 243.0 640.0 L 246.0 640.0 L 246.0 642.0 L 248.0 641.0 L 256.0 646.0 L 260.0 652.0 L 262.0 650.0 L 262.0 652.0 L 273.0 654.0 L 295.0 662.0 L 286.0 657.0 L 283.0 658.0 L 281.0 654.0 L 269.0 648.0 L 266.0 643.0 L 265.0 646.0 L 263.0 645.0 L 258.0 647.0 L 257.0 645.0 L 250.0 643.0 L 246.0 638.0 L 243.0 638.0 L 226.0 629.0 L 222.0 630.0 L 215.0 628.0 L 215.0 625.0 L 211.0 626.0 L 206.0 622.0 Z M 608.0 597.0 L 595.0 604.0 L 597.0 605.0 L 588.0 614.0 L 585.0 614.0 L 578.0 621.0 L 578.0 623.0 L 570.0 629.0 L 576.0 626.0 L 577.0 627.0 L 582.0 620.0 L 590.0 616.0 L 600.0 603.0 L 601.0 606.0 Z M 57.0 572.0 L 72.0 597.0 L 74.0 604.0 L 82.0 614.0 L 66.0 583.0 Z M 57.0 549.0 L 63.0 566.0 L 77.0 587.0 L 91.0 614.0 L 86.0 604.0 L 86.0 600.0 L 71.0 574.0 L 65.0 558.0 L 59.0 549.0 Z M 16.0 538.0 L 16.0 546.0 L 22.0 547.0 L 22.0 540.0 L 20.0 538.0 Z M 38.0 536.0 L 39.0 546.0 L 44.0 557.0 L 44.0 561.0 L 47.0 565.0 L 48.0 560.0 Z M 736.0 499.0 L 732.0 501.0 L 730.0 506.0 L 729.0 531.0 L 726.0 542.0 L 730.0 537.0 L 729.0 534.0 L 733.0 520.0 L 739.0 508.0 L 739.0 503.0 Z M 41.0 493.0 L 43.0 508.0 L 50.0 530.0 L 51.0 529.0 L 47.0 522.0 L 48.0 519.0 L 45.0 504.0 Z M 16.0 483.0 L 10.0 485.0 L 10.0 490.0 L 12.0 493.0 L 17.0 491.0 Z M 387.0 418.0 L 384.0 418.0 L 382.0 422.0 L 381.0 420.0 L 376.0 433.0 L 384.0 617.0 L 385.0 551.0 L 392.0 446.0 L 391.0 430.0 Z M 390.0 414.0 L 393.0 416.0 L 391.0 417.0 L 416.0 476.0 L 397.0 431.0 L 397.0 426.0 L 406.0 436.0 L 457.0 479.0 L 492.0 512.0 L 407.0 421.0 Z M 378.0 413.0 L 362.0 420.0 L 322.0 465.0 L 275.0 513.0 L 371.0 426.0 L 372.0 428.0 L 353.0 472.0 L 371.0 429.0 L 376.0 421.0 Z M 393.0 408.0 L 411.0 417.0 L 516.0 411.0 L 599.0 409.0 L 484.0 405.0 L 429.0 401.0 L 407.0 402.0 Z M 375.0 408.0 L 358.0 400.0 L 166.0 407.0 L 246.0 409.0 L 336.0 415.0 L 357.0 415.0 Z M 688.0 380.0 L 686.0 381.0 L 689.0 398.0 L 689.0 394.0 L 692.0 392.0 Z M 21.0 365.0 L 17.0 366.0 L 16.0 374.0 L 18.0 377.0 L 21.0 376.0 Z M 680.0 347.0 L 678.0 352.0 L 682.0 359.0 L 682.0 363.0 L 685.0 364.0 L 681.0 354.0 L 684.0 352.0 Z M 285.0 312.0 L 359.0 395.0 L 370.0 401.0 L 378.0 403.0 L 370.0 388.0 L 324.0 349.0 Z M 485.0 311.0 L 441.0 352.0 L 399.0 387.0 L 394.0 393.0 L 390.0 403.0 L 408.0 396.0 Z M 137.0 298.0 L 135.0 300.0 L 135.0 306.0 L 139.0 308.0 L 142.0 305.0 L 142.0 300.0 Z M 383.0 191.0 L 380.0 304.0 L 375.0 366.0 L 375.0 385.0 L 378.0 395.0 L 382.0 400.0 L 388.0 393.0 L 391.0 384.0 L 385.0 280.0 Z M 151.0 149.0 L 148.0 151.0 L 148.0 148.0 L 145.0 148.0 L 141.0 151.0 L 141.0 154.0 L 144.0 156.0 L 148.0 154.0 Z M 425.0 132.0 L 426.0 135.0 L 431.0 134.0 L 435.0 136.0 L 437.0 134.0 L 447.0 139.0 L 446.0 134.0 L 436.0 132.0 L 426.0 134.0 Z M 386.0 132.0 L 384.0 131.0 L 385.0 130.0 L 382.0 131.0 L 369.0 128.0 L 338.0 130.0 L 293.0 142.0 L 287.0 147.0 L 279.0 150.0 L 283.0 152.0 L 284.0 151.0 L 281.0 150.0 L 289.0 145.0 L 291.0 146.0 L 312.0 139.0 L 313.0 141.0 L 320.0 140.0 L 336.0 134.0 L 370.0 131.0 Z M 291.0 91.0 L 284.0 91.0 L 261.0 100.0 L 246.0 103.0 L 230.0 112.0 L 250.0 105.0 L 254.0 102.0 L 258.0 102.0 L 259.0 100.0 L 262.0 101.0 Z M 659.0 62.0 L 652.0 64.0 L 639.0 80.0 L 614.0 99.0 L 593.0 107.0 L 590.0 106.0 L 584.0 108.0 L 583.0 107.0 L 592.0 99.0 L 589.0 101.0 L 588.0 99.0 L 578.0 101.0 L 575.0 96.0 L 596.0 88.0 L 594.0 89.0 L 593.0 87.0 L 597.0 81.0 L 593.0 83.0 L 590.0 80.0 L 581.0 88.0 L 572.0 91.0 L 568.0 91.0 L 566.0 89.0 L 560.0 90.0 L 557.0 88.0 L 570.0 73.0 L 572.0 64.0 L 586.0 41.0 L 596.0 33.0 L 595.0 28.0 L 590.0 27.0 L 584.0 32.0 L 568.0 52.0 L 564.0 62.0 L 548.0 82.0 L 541.0 83.0 L 537.0 81.0 L 536.0 75.0 L 542.0 70.0 L 538.0 64.0 L 533.0 68.0 L 534.0 71.0 L 530.0 75.0 L 529.0 74.0 L 530.0 77.0 L 526.0 82.0 L 522.0 74.0 L 523.0 57.0 L 534.0 31.0 L 545.0 19.0 L 550.0 16.0 L 550.0 12.0 L 546.0 10.0 L 534.0 19.0 L 519.0 39.0 L 512.0 57.0 L 508.0 77.0 L 506.0 74.0 L 505.0 65.0 L 505.0 73.0 L 503.0 74.0 L 498.0 68.0 L 496.0 61.0 L 499.0 42.0 L 501.0 41.0 L 497.0 45.0 L 496.0 54.0 L 494.0 56.0 L 491.0 48.0 L 490.0 58.0 L 488.0 61.0 L 487.0 60.0 L 487.0 64.0 L 493.0 80.0 L 484.0 85.0 L 478.0 83.0 L 478.0 77.0 L 472.0 78.0 L 466.0 74.0 L 464.0 70.0 L 461.0 70.0 L 463.0 74.0 L 462.0 77.0 L 453.0 73.0 L 431.0 53.0 L 427.0 53.0 L 425.0 55.0 L 425.0 59.0 L 431.0 68.0 L 457.0 89.0 L 456.0 90.0 L 421.0 81.0 L 412.0 82.0 L 398.0 79.0 L 383.0 79.0 L 382.0 80.0 L 395.0 83.0 L 383.0 84.0 L 375.0 82.0 L 360.0 82.0 L 335.0 85.0 L 324.0 88.0 L 315.0 88.0 L 287.0 98.0 L 278.0 99.0 L 225.0 124.0 L 209.0 135.0 L 197.0 140.0 L 182.0 150.0 L 153.0 177.0 L 152.0 175.0 L 162.0 164.0 L 150.0 174.0 L 149.0 178.0 L 125.0 203.0 L 109.0 226.0 L 104.0 225.0 L 100.0 232.0 L 106.0 227.0 L 107.0 229.0 L 82.0 270.0 L 70.0 297.0 L 69.0 292.0 L 83.0 262.0 L 88.0 256.0 L 87.0 254.0 L 72.0 277.0 L 62.0 301.0 L 61.0 311.0 L 59.0 314.0 L 58.0 313.0 L 60.0 323.0 L 54.0 343.0 L 54.0 326.0 L 57.0 316.0 L 55.0 312.0 L 50.0 313.0 L 49.0 310.0 L 68.0 272.0 L 92.0 234.0 L 130.0 193.0 L 142.0 176.0 L 156.0 164.0 L 154.0 163.0 L 155.0 161.0 L 192.0 137.0 L 199.0 130.0 L 190.0 133.0 L 162.0 152.0 L 127.0 183.0 L 111.0 205.0 L 105.0 209.0 L 93.0 225.0 L 89.0 235.0 L 69.0 259.0 L 62.0 272.0 L 57.0 277.0 L 56.0 275.0 L 62.0 265.0 L 61.0 263.0 L 57.0 264.0 L 53.0 277.0 L 44.0 288.0 L 38.0 300.0 L 36.0 309.0 L 29.0 324.0 L 29.0 329.0 L 30.0 324.0 L 44.0 299.0 L 45.0 307.0 L 42.0 314.0 L 43.0 315.0 L 40.0 319.0 L 40.0 321.0 L 41.0 319.0 L 42.0 320.0 L 41.0 329.0 L 36.0 343.0 L 29.0 354.0 L 28.0 360.0 L 26.0 361.0 L 27.0 374.0 L 19.0 402.0 L 18.0 425.0 L 19.0 424.0 L 21.0 426.0 L 20.0 431.0 L 24.0 435.0 L 29.0 382.0 L 36.0 354.0 L 37.0 369.0 L 35.0 377.0 L 36.0 399.0 L 34.0 410.0 L 34.0 439.0 L 36.0 448.0 L 39.0 452.0 L 38.0 422.0 L 40.0 397.0 L 43.0 383.0 L 48.0 375.0 L 46.0 368.0 L 53.0 357.0 L 52.0 373.0 L 48.0 390.0 L 46.0 420.0 L 44.0 423.0 L 46.0 423.0 L 47.0 450.0 L 52.0 464.0 L 56.0 490.0 L 59.0 495.0 L 58.0 502.0 L 60.0 505.0 L 59.0 506.0 L 56.0 503.0 L 54.0 494.0 L 53.0 501.0 L 60.0 532.0 L 65.0 543.0 L 65.0 547.0 L 78.0 572.0 L 79.0 569.0 L 85.0 577.0 L 86.0 575.0 L 103.0 600.0 L 107.0 610.0 L 122.0 626.0 L 133.0 642.0 L 130.0 643.0 L 132.0 645.0 L 133.0 643.0 L 136.0 646.0 L 135.0 650.0 L 153.0 669.0 L 151.0 670.0 L 147.0 666.0 L 142.0 665.0 L 143.0 669.0 L 155.0 680.0 L 160.0 682.0 L 183.0 700.0 L 208.0 715.0 L 222.0 721.0 L 236.0 724.0 L 255.0 735.0 L 245.0 727.0 L 237.0 724.0 L 236.0 722.0 L 235.0 723.0 L 232.0 720.0 L 232.0 716.0 L 209.0 706.0 L 191.0 689.0 L 193.0 688.0 L 242.0 714.0 L 248.0 719.0 L 246.0 717.0 L 247.0 716.0 L 283.0 734.0 L 321.0 747.0 L 331.0 753.0 L 331.0 749.0 L 360.0 755.0 L 385.0 753.0 L 370.0 752.0 L 360.0 748.0 L 351.0 747.0 L 349.0 745.0 L 350.0 744.0 L 405.0 747.0 L 407.0 749.0 L 414.0 748.0 L 416.0 750.0 L 418.0 748.0 L 420.0 751.0 L 426.0 752.0 L 414.0 753.0 L 416.0 754.0 L 413.0 756.0 L 408.0 754.0 L 404.0 756.0 L 406.0 759.0 L 411.0 760.0 L 415.0 757.0 L 417.0 760.0 L 420.0 760.0 L 422.0 758.0 L 419.0 756.0 L 426.0 755.0 L 432.0 758.0 L 461.0 755.0 L 462.0 753.0 L 464.0 755.0 L 471.0 754.0 L 464.0 754.0 L 462.0 752.0 L 490.0 746.0 L 492.0 744.0 L 477.0 746.0 L 476.0 745.0 L 480.0 742.0 L 449.0 742.0 L 448.0 741.0 L 450.0 738.0 L 495.0 729.0 L 541.0 710.0 L 545.0 712.0 L 499.0 734.0 L 505.0 733.0 L 506.0 731.0 L 508.0 732.0 L 508.0 730.0 L 514.0 728.0 L 526.0 727.0 L 527.0 725.0 L 535.0 723.0 L 536.0 725.0 L 533.0 726.0 L 537.0 726.0 L 568.0 714.0 L 568.0 711.0 L 571.0 711.0 L 575.0 707.0 L 576.0 708.0 L 576.0 705.0 L 587.0 693.0 L 568.0 706.0 L 551.0 711.0 L 545.0 709.0 L 547.0 706.0 L 583.0 690.0 L 589.0 685.0 L 591.0 686.0 L 599.0 682.0 L 603.0 684.0 L 601.0 683.0 L 608.0 676.0 L 611.0 675.0 L 614.0 679.0 L 634.0 665.0 L 637.0 661.0 L 638.0 662.0 L 637.0 661.0 L 644.0 655.0 L 645.0 656.0 L 644.0 654.0 L 659.0 640.0 L 677.0 616.0 L 677.0 612.0 L 650.0 646.0 L 648.0 645.0 L 649.0 646.0 L 644.0 651.0 L 642.0 648.0 L 639.0 653.0 L 637.0 651.0 L 658.0 629.0 L 661.0 630.0 L 661.0 625.0 L 667.0 618.0 L 666.0 617.0 L 669.0 612.0 L 673.0 609.0 L 684.0 592.0 L 690.0 586.0 L 707.0 557.0 L 721.0 513.0 L 724.0 492.0 L 723.0 486.0 L 726.0 454.0 L 729.0 452.0 L 732.0 455.0 L 734.0 452.0 L 734.0 449.0 L 731.0 447.0 L 727.0 451.0 L 725.0 448.0 L 727.0 431.0 L 720.0 378.0 L 715.0 363.0 L 716.0 361.0 L 711.0 346.0 L 707.0 344.0 L 705.0 335.0 L 704.0 336.0 L 703.0 334.0 L 704.0 342.0 L 707.0 343.0 L 706.0 346.0 L 711.0 348.0 L 709.0 352.0 L 718.0 382.0 L 721.0 405.0 L 722.0 449.0 L 721.0 486.0 L 718.0 510.0 L 708.0 545.0 L 702.0 554.0 L 701.0 552.0 L 704.0 540.0 L 705.0 543.0 L 704.0 539.0 L 697.0 551.0 L 694.0 547.0 L 697.0 537.0 L 706.0 520.0 L 711.0 504.0 L 714.0 486.0 L 712.0 476.0 L 712.0 480.0 L 710.0 482.0 L 707.0 481.0 L 712.0 443.0 L 712.0 413.0 L 705.0 366.0 L 699.0 341.0 L 696.0 335.0 L 694.0 317.0 L 675.0 276.0 L 676.0 275.0 L 691.0 296.0 L 702.0 304.0 L 713.0 306.0 L 716.0 301.0 L 715.0 298.0 L 711.0 296.0 L 704.0 296.0 L 697.0 290.0 L 694.0 283.0 L 683.0 271.0 L 664.0 243.0 L 655.0 233.0 L 651.0 225.0 L 652.0 224.0 L 665.0 233.0 L 684.0 239.0 L 704.0 239.0 L 713.0 237.0 L 721.0 237.0 L 724.0 239.0 L 729.0 237.0 L 731.0 232.0 L 727.0 229.0 L 705.0 234.0 L 689.0 234.0 L 675.0 231.0 L 645.0 209.0 L 632.0 194.0 L 635.0 193.0 L 624.0 185.0 L 608.0 169.0 L 613.0 169.0 L 642.0 194.0 L 621.0 172.0 L 622.0 170.0 L 625.0 171.0 L 627.0 168.0 L 632.0 167.0 L 656.0 168.0 L 675.0 166.0 L 694.0 161.0 L 699.0 162.0 L 703.0 158.0 L 702.0 154.0 L 697.0 152.0 L 689.0 157.0 L 660.0 158.0 L 642.0 156.0 L 624.0 150.0 L 623.0 151.0 L 620.0 148.0 L 617.0 148.0 L 616.0 150.0 L 612.0 148.0 L 610.0 141.0 L 613.0 140.0 L 619.0 142.0 L 622.0 140.0 L 623.0 141.0 L 624.0 138.0 L 611.0 135.0 L 594.0 123.0 L 595.0 122.0 L 592.0 122.0 L 592.0 120.0 L 597.0 117.0 L 602.0 116.0 L 616.0 108.0 L 619.0 109.0 L 633.0 98.0 L 660.0 68.0 L 661.0 65.0 Z M 503.0 708.0 L 498.0 713.0 L 490.0 715.0 L 485.0 712.0 L 498.0 707.0 Z M 513.0 694.0 L 512.0 696.0 L 509.0 696.0 L 499.0 702.0 L 486.0 702.0 L 480.0 704.0 L 474.0 703.0 L 501.0 695.0 L 505.0 692.0 L 507.0 693.0 L 509.0 691.0 Z M 199.0 649.0 L 204.0 648.0 L 204.0 651.0 L 203.0 650.0 L 206.0 650.0 L 217.0 660.0 L 215.0 661.0 L 205.0 655.0 Z M 180.0 607.0 L 185.0 605.0 L 186.0 607.0 L 187.0 605.0 L 191.0 606.0 L 193.0 610.0 L 204.0 619.0 L 201.0 619.0 L 203.0 620.0 L 201.0 622.0 L 197.0 618.0 L 198.0 619.0 L 196.0 620.0 Z M 169.0 590.0 L 174.0 588.0 L 176.0 591.0 L 175.0 597.0 L 176.0 598.0 L 175.0 597.0 L 177.0 595.0 L 180.0 602.0 L 186.0 604.0 L 180.0 607.0 L 176.0 605.0 L 174.0 601.0 L 167.0 596.0 L 169.0 594.0 L 171.0 595.0 L 170.0 594.0 L 172.0 593.0 Z M 90.0 477.0 L 96.0 499.0 L 104.0 516.0 L 111.0 538.0 L 130.0 571.0 L 138.0 581.0 L 137.0 583.0 L 130.0 577.0 L 122.0 565.0 L 104.0 531.0 L 92.0 495.0 L 89.0 481.0 Z M 61.0 475.0 L 65.0 486.0 L 63.0 491.0 L 59.0 482.0 Z M 78.0 453.0 L 81.0 463.0 L 81.0 474.0 L 79.0 473.0 Z M 120.0 277.0 L 123.0 279.0 L 122.0 283.0 L 120.0 283.0 L 113.0 295.0 L 115.0 296.0 L 108.0 306.0 L 107.0 303.0 L 112.0 289.0 L 116.0 285.0 L 117.0 279.0 L 118.0 281.0 Z M 129.0 254.0 L 131.0 257.0 L 127.0 265.0 L 120.0 273.0 L 119.0 272.0 L 124.0 261.0 Z M 549.0 165.0 L 557.0 173.0 L 555.0 176.0 L 549.0 171.0 Z M 206.0 157.0 L 193.0 167.0 L 192.0 166.0 L 188.0 169.0 L 184.0 168.0 L 198.0 156.0 L 200.0 157.0 L 198.0 159.0 L 204.0 156.0 Z M 280.0 136.0 L 282.0 138.0 L 296.0 132.0 L 328.0 124.0 L 331.0 125.0 L 377.0 119.0 L 418.0 120.0 L 419.0 122.0 L 421.0 121.0 L 423.0 123.0 L 419.0 124.0 L 432.0 124.0 L 434.0 127.0 L 443.0 125.0 L 452.0 127.0 L 452.0 130.0 L 457.0 130.0 L 456.0 129.0 L 459.0 128.0 L 480.0 136.0 L 480.0 139.0 L 485.0 139.0 L 481.0 142.0 L 471.0 142.0 L 474.0 144.0 L 474.0 147.0 L 488.0 142.0 L 489.0 139.0 L 499.0 143.0 L 500.0 142.0 L 501.0 147.0 L 498.0 151.0 L 497.0 150.0 L 497.0 152.0 L 499.0 151.0 L 503.0 154.0 L 504.0 153.0 L 507.0 157.0 L 510.0 154.0 L 510.0 149.0 L 512.0 149.0 L 515.0 153.0 L 516.0 157.0 L 513.0 157.0 L 515.0 158.0 L 514.0 159.0 L 517.0 159.0 L 522.0 181.0 L 520.0 187.0 L 521.0 186.0 L 522.0 188.0 L 520.0 192.0 L 519.0 210.0 L 514.0 220.0 L 514.0 227.0 L 516.0 230.0 L 523.0 230.0 L 523.0 210.0 L 526.0 204.0 L 528.0 169.0 L 530.0 169.0 L 530.0 173.0 L 531.0 170.0 L 529.0 165.0 L 531.0 163.0 L 551.0 198.0 L 555.0 200.0 L 547.0 182.0 L 549.0 179.0 L 553.0 183.0 L 565.0 206.0 L 569.0 208.0 L 558.0 186.0 L 554.0 182.0 L 555.0 178.0 L 557.0 178.0 L 556.0 175.0 L 558.0 174.0 L 574.0 186.0 L 597.0 209.0 L 609.0 227.0 L 610.0 232.0 L 617.0 243.0 L 616.0 245.0 L 617.0 243.0 L 620.0 248.0 L 619.0 249.0 L 620.0 248.0 L 623.0 255.0 L 620.0 255.0 L 621.0 259.0 L 622.0 256.0 L 627.0 262.0 L 631.0 274.0 L 631.0 301.0 L 629.0 310.0 L 625.0 319.0 L 615.0 330.0 L 615.0 333.0 L 622.0 334.0 L 625.0 331.0 L 631.0 317.0 L 638.0 309.0 L 638.0 298.0 L 641.0 295.0 L 642.0 286.0 L 639.0 269.0 L 639.0 258.0 L 641.0 257.0 L 641.0 254.0 L 632.0 241.0 L 630.0 235.0 L 631.0 232.0 L 640.0 243.0 L 641.0 247.0 L 661.0 278.0 L 663.0 292.0 L 675.0 325.0 L 673.0 326.0 L 673.0 329.0 L 678.0 333.0 L 678.0 336.0 L 679.0 334.0 L 675.0 323.0 L 674.0 310.0 L 672.0 309.0 L 673.0 306.0 L 671.0 306.0 L 667.0 292.0 L 669.0 291.0 L 672.0 294.0 L 675.0 307.0 L 690.0 346.0 L 698.0 379.0 L 698.0 396.0 L 701.0 403.0 L 701.0 433.0 L 696.0 473.0 L 698.0 478.0 L 694.0 486.0 L 688.0 509.0 L 683.0 521.0 L 681.0 522.0 L 680.0 518.0 L 684.0 509.0 L 688.0 491.0 L 687.0 489.0 L 689.0 486.0 L 682.0 506.0 L 660.0 547.0 L 660.0 550.0 L 640.0 577.0 L 642.0 580.0 L 628.0 598.0 L 624.0 598.0 L 621.0 602.0 L 619.0 601.0 L 627.0 590.0 L 630.0 581.0 L 633.0 580.0 L 638.0 571.0 L 638.0 568.0 L 646.0 555.0 L 646.0 551.0 L 649.0 548.0 L 649.0 545.0 L 651.0 545.0 L 651.0 540.0 L 648.0 545.0 L 649.0 547.0 L 641.0 558.0 L 641.0 562.0 L 635.0 566.0 L 636.0 568.0 L 634.0 570.0 L 631.0 570.0 L 630.0 573.0 L 634.0 575.0 L 625.0 586.0 L 627.0 589.0 L 623.0 594.0 L 621.0 590.0 L 608.0 603.0 L 610.0 605.0 L 609.0 607.0 L 615.0 602.0 L 618.0 604.0 L 601.0 617.0 L 583.0 635.0 L 582.0 634.0 L 573.0 643.0 L 571.0 642.0 L 572.0 644.0 L 568.0 648.0 L 561.0 652.0 L 572.0 648.0 L 573.0 649.0 L 553.0 664.0 L 526.0 678.0 L 524.0 677.0 L 525.0 678.0 L 522.0 680.0 L 515.0 681.0 L 505.0 687.0 L 477.0 697.0 L 448.0 702.0 L 446.0 701.0 L 463.0 694.0 L 447.0 695.0 L 447.0 693.0 L 472.0 689.0 L 479.0 685.0 L 474.0 684.0 L 480.0 680.0 L 501.0 673.0 L 503.0 670.0 L 511.0 666.0 L 515.0 666.0 L 519.0 663.0 L 520.0 665.0 L 526.0 658.0 L 529.0 660.0 L 528.0 661.0 L 530.0 657.0 L 533.0 658.0 L 535.0 655.0 L 538.0 657.0 L 535.0 655.0 L 544.0 649.0 L 532.0 657.0 L 526.0 657.0 L 519.0 663.0 L 513.0 662.0 L 506.0 668.0 L 500.0 669.0 L 498.0 672.0 L 496.0 671.0 L 490.0 673.0 L 490.0 675.0 L 483.0 675.0 L 483.0 677.0 L 473.0 681.0 L 470.0 680.0 L 471.0 678.0 L 467.0 682.0 L 465.0 681.0 L 466.0 680.0 L 463.0 681.0 L 462.0 679.0 L 460.0 683.0 L 445.0 688.0 L 409.0 692.0 L 409.0 690.0 L 415.0 690.0 L 420.0 687.0 L 422.0 688.0 L 422.0 686.0 L 413.0 689.0 L 363.0 690.0 L 358.0 688.0 L 340.0 688.0 L 330.0 685.0 L 329.0 686.0 L 333.0 687.0 L 322.0 687.0 L 330.0 690.0 L 335.0 688.0 L 335.0 691.0 L 337.0 689.0 L 356.0 694.0 L 357.0 696.0 L 377.0 696.0 L 378.0 697.0 L 376.0 699.0 L 333.0 697.0 L 314.0 694.0 L 289.0 687.0 L 283.0 683.0 L 287.0 682.0 L 272.0 675.0 L 265.0 668.0 L 268.0 668.0 L 267.0 666.0 L 247.0 657.0 L 239.0 652.0 L 240.0 655.0 L 238.0 656.0 L 213.0 637.0 L 225.0 648.0 L 223.0 650.0 L 190.0 627.0 L 192.0 625.0 L 196.0 628.0 L 202.0 627.0 L 201.0 624.0 L 203.0 623.0 L 204.0 617.0 L 201.0 614.0 L 202.0 613.0 L 204.0 615.0 L 202.0 613.0 L 200.0 614.0 L 180.0 590.0 L 175.0 588.0 L 169.0 581.0 L 169.0 585.0 L 172.0 588.0 L 168.0 590.0 L 160.0 582.0 L 162.0 580.0 L 150.0 564.0 L 152.0 568.0 L 151.0 570.0 L 153.0 571.0 L 155.0 577.0 L 157.0 577.0 L 169.0 593.0 L 168.0 595.0 L 166.0 593.0 L 164.0 595.0 L 155.0 586.0 L 156.0 585.0 L 145.0 573.0 L 131.0 553.0 L 124.0 547.0 L 126.0 546.0 L 124.0 547.0 L 121.0 544.0 L 120.0 540.0 L 115.0 534.0 L 100.0 497.0 L 93.0 471.0 L 92.0 460.0 L 93.0 459.0 L 95.0 462.0 L 96.0 469.0 L 103.0 482.0 L 109.0 502.0 L 111.0 503.0 L 112.0 509.0 L 118.0 520.0 L 112.0 500.0 L 113.0 495.0 L 112.0 497.0 L 104.0 475.0 L 104.0 465.0 L 109.0 469.0 L 111.0 479.0 L 114.0 481.0 L 120.0 497.0 L 121.0 493.0 L 119.0 491.0 L 114.0 472.0 L 111.0 469.0 L 112.0 467.0 L 106.0 458.0 L 107.0 457.0 L 103.0 447.0 L 103.0 427.0 L 101.0 425.0 L 100.0 393.0 L 98.0 393.0 L 97.0 386.0 L 100.0 380.0 L 99.0 357.0 L 104.0 346.0 L 103.0 345.0 L 105.0 344.0 L 104.0 341.0 L 109.0 329.0 L 112.0 317.0 L 113.0 319.0 L 113.0 313.0 L 117.0 307.0 L 120.0 295.0 L 122.0 295.0 L 121.0 291.0 L 124.0 287.0 L 123.0 282.0 L 127.0 272.0 L 143.0 242.0 L 169.0 210.0 L 195.0 185.0 L 217.0 168.0 L 232.0 159.0 Z" fill="#000000" fill-rule="evenodd"/>
</svg>
